<svg width="81" height="80" viewBox="0 0 81 80" fill="none" xmlns="http://www.w3.org/2000/svg">
<path d="M76.3018 55.704C70.9458 58.0856 65.2262 59.1975 59.3456 59.032L59.3438 59.032C39.0201 58.4455 22.0532 41.4725 21.4631 21.1489L21.463 21.1481C21.2938 15.2576 22.4138 9.54459 24.7902 4.19036C24.818 4.12771 24.8166 4.08438 24.8111 4.05678C24.8056 4.02905 24.7899 3.98746 24.739 3.93907L24.7379 3.93803C24.6765 3.87955 24.6211 3.8596 24.5792 3.85337C24.5376 3.84718 24.4793 3.85008 24.4037 3.88793C9.79745 11.2522 1.48943 26.5412 3.22819 42.8854C5.14519 60.8874 19.6151 75.3557 37.6119 77.2729C39.0516 77.4256 40.4808 77.5003 41.8997 77.5003C56.578 77.5003 69.8903 69.4203 76.6077 56.0944L76.6083 56.0932C76.6446 56.0214 76.6483 55.9639 76.6418 55.9204C76.6359 55.8809 76.6184 55.8313 76.5722 55.7773L76.5553 55.7596C76.5029 55.7047 76.4591 55.6889 76.4323 55.6835C76.4061 55.6783 76.3642 55.6766 76.3018 55.704ZM76.3018 55.704C76.3015 55.7042 76.3012 55.7043 76.3008 55.7045L75.2874 53.4191L76.3032 55.7034C76.3028 55.7036 76.3023 55.7038 76.3018 55.704ZM77.7776 14.1746L77.7785 14.1747C77.8378 14.1833 77.8785 14.2049 77.9078 14.2296C77.9367 14.254 77.966 14.2913 77.9857 14.3498C78.0043 14.4099 78.0024 14.4585 77.9932 14.4958C77.9839 14.5334 77.9636 14.5745 77.9214 14.6156L77.9194 14.6175L70.9231 21.4386L69.9821 22.356L70.2043 23.6513L71.8559 33.2791L71.8562 33.2806C71.8662 33.3388 71.8584 33.3848 71.8437 33.4209C71.829 33.457 71.8026 33.4953 71.7549 33.5299L71.7511 33.5327C71.6967 33.5723 71.6469 33.5842 71.6063 33.5842C71.5761 33.5842 71.5336 33.5769 71.4832 33.5505C71.4831 33.5504 71.4831 33.5504 71.483 33.5504L62.8352 29.0055L61.6721 28.3942L60.5091 29.0055L51.8611 33.5505L51.8607 33.5507C51.8048 33.58 51.7572 33.5865 51.7193 33.5837C51.6817 33.581 51.6384 33.5682 51.5912 33.5338L51.5858 33.5299C51.5381 33.4953 51.5116 33.457 51.497 33.4209C51.4823 33.3848 51.4745 33.3388 51.4845 33.2806L51.4848 33.2791L53.1364 23.6513L53.3586 22.356L52.4176 21.4386L45.4234 14.6196C45.4232 14.6194 45.423 14.6192 45.4228 14.619C45.3794 14.5764 45.3583 14.5335 45.3489 14.4954C45.3396 14.4574 45.3383 14.4105 45.3569 14.3533C45.3766 14.2928 45.4065 14.2545 45.436 14.2296C45.4652 14.2049 45.5059 14.1833 45.5652 14.1747L45.5662 14.1746L55.2347 12.7711L56.5355 12.5823L57.1173 11.4037L61.4413 2.64466L61.4437 2.63971C61.4691 2.58804 61.5014 2.55637 61.5338 2.53621C61.5663 2.51601 61.6108 2.5 61.6719 2.5C61.7324 2.5 61.7757 2.51567 61.8077 2.53562C61.84 2.55567 61.8748 2.5889 61.9031 2.64582C61.9031 2.64594 61.9032 2.64607 61.9033 2.6462L66.2265 11.4037L66.8083 12.5823L68.1091 12.7711L77.7776 14.1746Z" stroke="url(#paint0_linear_186_1152)" stroke-width="5"/>
<defs>
<linearGradient id="paint0_linear_186_1152" x1="40.5" y1="0" x2="40.5" y2="80.0003" gradientUnits="userSpaceOnUse">
<stop stop-color="#FCF5A2"/>
<stop offset="1" stop-color="#C9A751"/>
</linearGradient>
</defs>
</svg>
