<svg width="54" height="86" viewBox="0 0 54 86" fill="none" xmlns="http://www.w3.org/2000/svg">
<path d="M38.3689 34.5018C42.9208 36.1735 46.5865 38.6307 49.3659 41.8734C52.1656 45.096 53.5654 49.0739 53.5654 53.8071C53.5654 58.6409 52.5382 63.1626 50.4838 67.3721C48.4294 71.5615 45.5089 75.197 41.7224 78.2786C37.956 81.3602 33.5753 83.6865 28.5803 85.2575C26.969 85.6603 25.0757 85.8617 22.9005 85.8617C16.9186 85.479 12.1653 84.1698 8.64055 81.9342C5.11585 79.6784 2.60828 76.0429 1.11783 71.0277C0.372611 68.5504 0 66.6068 0 65.1969C0 61.3902 1.32932 57.7044 3.98795 54.1394C6.64658 50.5543 9.93965 47.3115 13.8672 44.4112C6.27397 41.8734 2.47736 37.1705 2.47736 30.3024C2.47736 30.1211 2.4975 29.7082 2.53778 29.0637C2.57807 28.4192 2.59821 27.966 2.59821 27.7041C3.26287 22.7696 5.39783 18.0263 9.00309 13.4744C12.6084 8.92253 16.9891 4.43105 22.1452 0C29.2349 0.644517 35.3477 2.09468 40.4837 4.35049C45.6197 6.58615 48.953 10.4533 50.4838 15.9518C50.5643 16.4352 50.6046 17.4221 50.6046 18.9125C50.6046 22.1351 49.4163 25.1059 47.0396 27.825C44.663 30.544 41.7727 32.7696 38.3689 34.5018ZM35.4988 34.0184C37.7143 32.3064 39.4464 30.7152 40.6952 29.2449C41.9439 27.7545 42.5683 26.0828 42.5683 24.2298V22.5077C41.8634 19.5067 39.8895 17.2509 36.6468 15.7403C33.4242 14.2096 30.111 13.2428 26.7072 12.84C23.3234 12.417 19.3254 12.0948 14.7131 11.8732C11.5912 16.3043 10.0303 19.9297 10.0303 22.7494C10.0303 24.4816 10.6849 26.1331 11.9941 27.7041C13.2227 29.255 15.1461 30.393 17.7645 31.1181C20.3828 31.8431 23.6961 32.4373 27.7041 32.9006C31.7324 33.3638 34.3306 33.7364 35.4988 34.0184ZM42.5683 70.1516C46.1131 68.1375 47.8856 65.207 47.8856 61.36C47.8856 59.7286 47.4223 58.0669 46.4958 56.3751C45.5693 54.6832 44.2602 53.2935 42.5683 52.2058C40.8362 51.0377 38.9228 50.0507 36.8281 49.2451C34.7535 48.4394 32.6287 47.7849 30.4534 47.2813C28.2782 46.7577 25.9217 46.2843 23.3839 45.8614C20.8461 45.4384 18.6608 45.0759 16.8279 44.7738C11.5509 49.2451 8.91246 53.7466 8.91246 58.2784C8.91246 62.4476 11.1783 65.9622 15.7101 68.8223C20.262 71.6823 25.2973 73.1124 30.8159 73.1124C35.3477 73.1124 39.2652 72.1254 42.5683 70.1516Z" fill="#2C2C2C"/>
</svg>
