<svg width="70" height="54" viewBox="0 0 70 54" fill="none" xmlns="http://www.w3.org/2000/svg">
<path d="M66.6582 53.5917V49.5994C61.1755 47.5767 56.8639 44.4095 53.7233 40.0979C50.5828 35.733 49.0125 31.2085 49.0125 26.5243C49.0125 25.5129 49.1722 24.7677 49.4916 24.2886C49.6512 23.9693 49.8642 23.8096 50.1303 23.8096C50.3965 23.8096 50.8223 24.0225 51.4078 24.4483C53.1112 25.6726 55.2404 26.2848 57.7954 26.2848C60.8827 26.2848 63.5975 25.0605 65.9396 22.6119C68.2285 20.1101 69.3729 17.1558 69.3729 13.7491C69.3729 10.1295 68.0421 6.98894 65.3807 4.32745C62.7192 1.61273 59.4455 0.255371 55.5598 0.255371C51.1417 0.255371 47.3091 2.0918 44.0621 5.76466C40.7619 9.38429 39.1117 14.2814 39.1117 20.4561C39.1117 27.6421 41.3208 34.0829 45.7389 39.7785C50.1569 45.4741 57.13 50.0785 66.6582 53.5917ZM28.2529 53.5917V49.5994C22.7702 47.5767 18.4586 44.4095 15.318 40.0979C12.1774 35.733 10.6072 31.2085 10.6072 26.5243C10.6072 25.5129 10.7669 24.7677 11.0862 24.2886C11.2459 23.9693 11.4588 23.8096 11.725 23.8096C11.9911 23.8096 12.417 24.0225 13.0025 24.4483C14.7059 25.6726 16.8351 26.2848 19.3901 26.2848C22.4774 26.2848 25.1921 25.0605 27.5343 22.6119C29.8231 20.1101 30.9676 17.1558 30.9676 13.7491C30.9676 10.1295 29.6368 6.98894 26.9753 4.32745C24.3138 1.61273 21.0402 0.255371 17.1544 0.255371C12.7364 0.255371 8.90381 2.0918 5.65679 5.76466C2.35655 9.38429 0.706421 14.2814 0.706421 20.4561C0.706421 27.6421 2.91546 34.0829 7.33353 39.7785C11.7516 45.4741 18.7247 50.0785 28.2529 53.5917Z" fill="#2B2B2B"/>
</svg>
